<svg width="1324" height="506" viewBox="0 0 1324 506" fill="none" xmlns="http://www.w3.org/2000/svg">
<g filter="url(#filter0_i)">
<circle cx="200" cy="253" r="200" fill="#CEB21B"/>
</g>
<circle cx="200" cy="253" r="199" stroke="#064061" stroke-width="2"/>
<path d="M519.434 239.687C518.991 232.585 517.289 225.852 514.33 219.49C511.37 213.127 507.079 207.948 501.456 203.953C495.834 199.958 488.657 197.96 479.927 197.96C470.753 197.96 463.725 200.55 458.842 205.729C453.959 210.908 451.517 216.974 451.517 223.929C451.517 230.143 453.293 235.396 456.844 239.687C460.395 243.831 464.982 247.53 470.605 250.785C476.376 253.892 482.442 256.926 488.805 259.885C494.428 262.401 500.051 265.138 505.673 268.097C511.296 270.909 516.401 274.164 520.988 277.863C525.575 281.562 529.2 286.001 531.864 291.18C534.675 296.211 536.081 302.278 536.081 309.38C536.081 321.662 531.568 331.798 522.542 339.788C513.516 347.63 500.717 351.551 484.144 351.551C477.486 351.551 470.605 350.589 463.503 348.666C456.4 346.742 450.111 343.931 444.637 340.232L445.746 349.776H434.205L432.873 302.5H441.529C442.269 315.521 446.782 325.435 455.068 332.241C463.355 338.9 473.342 342.229 485.032 342.229C490.803 342.229 496.13 341.193 501.012 339.122C505.895 336.902 509.743 333.721 512.554 329.578C515.513 325.435 516.993 320.404 516.993 314.485C516.993 307.827 515.217 302.278 511.666 297.839C508.115 293.4 503.528 289.553 497.905 286.297C492.282 283.042 486.29 279.935 479.927 276.975C474.304 274.46 468.755 271.796 463.281 268.985C457.806 266.174 452.775 262.992 448.188 259.441C443.749 255.742 440.124 251.377 437.312 246.346C434.649 241.315 433.317 235.248 433.317 228.146C433.317 224.299 433.983 220.156 435.315 215.717C436.646 211.278 438.94 207.06 442.195 203.065C445.598 198.922 450.185 195.593 455.956 193.078C461.875 190.414 469.347 189.082 478.373 189.082C483.996 189.082 490.285 189.896 497.239 191.524C504.342 193.004 510.926 195.963 516.993 200.402L516.105 190.858H527.425V239.687H519.434ZM544.6 348V340.676C549.039 340.676 552.442 339.492 554.81 337.124C557.177 334.757 559.101 331.502 560.581 327.358C562.208 323.215 564.058 318.406 566.129 312.932L611.851 188.417H617.178L666.674 314.707C667.857 317.815 669.189 321.81 670.669 326.693C672.148 331.576 672.74 335.719 672.444 339.122C674.96 338.974 677.475 338.826 679.991 338.678C682.506 338.53 685.022 338.382 687.537 338.234V348H636.71V340.676C642.333 340.528 646.032 339.27 647.808 336.902C649.583 334.535 650.249 331.724 649.805 328.468C649.361 325.213 648.622 322.254 647.586 319.59L639.817 298.727L582.11 300.058L574.342 323.807C573.306 327.358 572.344 330.17 571.456 332.241C570.716 334.313 569.829 336.606 568.793 339.122C571.752 338.974 574.638 338.826 577.449 338.678C580.408 338.53 583.294 338.382 586.105 338.234V348H544.6ZM585.439 290.514H636.71L620.952 248.122C619.324 243.535 617.622 239.022 615.847 234.583C614.219 229.996 612.591 225.409 610.964 220.822H610.52C609.04 224.965 607.486 229.108 605.859 233.251C604.379 237.394 602.825 241.611 601.198 245.902L585.439 290.514ZM818.484 351.551L729.925 232.585C728.593 230.809 727.261 229.108 725.93 227.48C724.746 225.704 723.488 223.929 722.156 222.153H721.934L722.6 317.149C722.6 320.848 722.6 324.547 722.6 328.246C722.6 331.945 722.452 335.571 722.156 339.122C724.82 338.974 727.483 338.826 730.147 338.678C732.81 338.53 735.474 338.382 738.137 338.234V348H697.52V340.676C702.107 340.676 705.362 339.714 707.286 337.79C709.357 335.719 710.689 333.351 711.281 330.688C711.873 327.876 712.169 325.361 712.169 323.141L712.391 216.382V201.512C710.023 201.66 707.582 201.808 705.066 201.956C702.551 202.104 700.035 202.252 697.52 202.399V192.634H723.932L807.164 304.054C809.088 306.569 810.937 309.084 812.713 311.6C814.636 314.115 816.56 316.631 818.484 319.146H818.706L818.928 217.492C818.928 211.278 819.149 205.951 819.593 201.512C816.93 201.66 814.267 201.808 811.603 201.956C808.94 202.104 806.276 202.252 803.613 202.399V192.634H844.452V199.958C838.977 200.106 835.204 201.364 833.132 203.731C831.061 206.099 829.951 209.28 829.803 213.275C829.655 217.27 829.581 221.931 829.581 227.258L829.137 351.551H818.484ZM982.444 239.465C982.296 230.735 981.408 223.485 979.78 217.714C978.153 211.943 975.267 207.652 971.124 204.841C967.129 201.882 961.284 200.476 953.59 200.624H934.724L934.502 321.588C934.502 329.43 934.28 335.275 933.836 339.122C936.944 338.974 939.977 338.826 942.936 338.678C946.044 338.53 949.151 338.382 952.258 338.234V348H900.1V340.676C905.722 340.38 909.495 339.048 911.419 336.68C913.491 334.313 914.6 331.132 914.748 327.137C915.044 322.993 915.192 318.406 915.192 313.375L915.414 200.846L892.553 201.068C883.231 201.068 876.647 204.175 872.799 210.39C868.952 216.604 867.029 226.296 867.029 239.465H858.816L860.148 192.634H989.546L990.878 239.465H982.444ZM1085.13 351.551C1071.07 351.551 1059.01 349.184 1048.95 344.449C1038.89 339.714 1030.68 333.425 1024.31 325.583C1018.1 317.593 1013.51 308.788 1010.55 299.171C1007.59 289.553 1006.11 279.935 1006.11 270.317C1006.11 260.995 1007.67 251.599 1010.78 242.129C1013.88 232.511 1018.62 223.707 1024.98 215.717C1031.49 207.726 1039.56 201.29 1049.17 196.407C1058.94 191.524 1070.33 189.082 1083.35 189.082C1096.97 189.082 1108.73 191.524 1118.64 196.407C1128.56 201.29 1136.7 207.8 1143.06 215.939C1149.57 223.929 1154.38 232.659 1157.49 242.129C1160.74 251.599 1162.37 260.995 1162.37 270.317C1162.37 279.491 1160.82 288.887 1157.71 298.505C1154.6 307.975 1149.79 316.779 1143.28 324.917C1136.92 332.907 1128.93 339.344 1119.31 344.227C1109.69 349.11 1098.3 351.551 1085.13 351.551ZM1085.57 342.451C1094.75 342.451 1102.74 340.528 1109.54 336.68C1116.35 332.685 1121.97 327.432 1126.41 320.922C1131 314.263 1134.4 306.939 1136.62 298.949C1138.99 290.81 1140.17 282.672 1140.17 274.534C1140.17 265.36 1138.92 256.26 1136.4 247.234C1133.88 238.208 1130.19 229.996 1125.3 222.597C1120.42 215.199 1114.35 209.28 1107.1 204.841C1100 200.254 1091.86 197.96 1082.69 197.96C1073.51 197.96 1065.45 199.958 1058.5 203.953C1051.69 207.948 1045.99 213.275 1041.4 219.934C1036.97 226.444 1033.56 233.769 1031.2 241.907C1028.98 249.897 1027.87 258.035 1027.87 266.322C1027.87 274.46 1028.98 282.968 1031.2 291.846C1033.56 300.724 1037.11 309.01 1041.85 316.705C1046.58 324.399 1052.58 330.614 1059.83 335.349C1067.08 340.084 1075.66 342.451 1085.57 342.451ZM1271.56 239.687C1271.11 232.585 1269.41 225.852 1266.45 219.49C1263.49 213.127 1259.2 207.948 1253.58 203.953C1247.96 199.958 1240.78 197.96 1232.05 197.96C1222.88 197.96 1215.85 200.55 1210.96 205.729C1206.08 210.908 1203.64 216.974 1203.64 223.929C1203.64 230.143 1205.42 235.396 1208.97 239.687C1212.52 243.831 1217.1 247.53 1222.73 250.785C1228.5 253.892 1234.56 256.926 1240.93 259.885C1246.55 262.401 1252.17 265.138 1257.8 268.097C1263.42 270.909 1268.52 274.164 1273.11 277.863C1277.7 281.562 1281.32 286.001 1283.99 291.18C1286.8 296.211 1288.2 302.278 1288.2 309.38C1288.2 321.662 1283.69 331.798 1274.66 339.788C1265.64 347.63 1252.84 351.551 1236.27 351.551C1229.61 351.551 1222.73 350.589 1215.63 348.666C1208.52 346.742 1202.23 343.931 1196.76 340.232L1197.87 349.776H1186.33L1185 302.5H1193.65C1194.39 315.521 1198.9 325.435 1207.19 332.241C1215.48 338.9 1225.46 342.229 1237.15 342.229C1242.93 342.229 1248.25 341.193 1253.13 339.122C1258.02 336.902 1261.87 333.721 1264.68 329.578C1267.64 325.435 1269.12 320.404 1269.12 314.485C1269.12 307.827 1267.34 302.278 1263.79 297.839C1260.24 293.4 1255.65 289.553 1250.03 286.297C1244.4 283.042 1238.41 279.935 1232.05 276.975C1226.43 274.46 1220.88 271.796 1215.4 268.985C1209.93 266.174 1204.9 262.992 1200.31 259.441C1195.87 255.742 1192.25 251.377 1189.43 246.346C1186.77 241.315 1185.44 235.248 1185.44 228.146C1185.44 224.299 1186.11 220.156 1187.44 215.717C1188.77 211.278 1191.06 207.06 1194.32 203.065C1197.72 198.922 1202.31 195.593 1208.08 193.078C1214 190.414 1221.47 189.082 1230.5 189.082C1236.12 189.082 1242.41 189.896 1249.36 191.524C1256.46 193.004 1263.05 195.963 1269.12 200.402L1268.23 190.858H1279.55V239.687H1271.56Z" fill="#064061"/>
<path d="M194.197 401.95L104.527 191.799C98.7334 178.368 94.6515 167.571 92.2814 159.407C89.9113 150.98 88.3312 143.869 87.5411 138.076C83.8543 138.339 80.1674 138.471 76.4805 138.471C72.7937 138.471 69.1068 138.602 65.4199 138.866V121.485H157.065L156.67 134.916C143.503 135.706 135.602 139.787 132.969 147.161C130.335 154.272 131.652 164.41 136.919 177.578C143.239 193.115 149.296 208.126 155.09 222.61C160.883 237.094 167.336 252.764 174.446 269.618C180.766 284.365 186.823 298.586 192.617 312.28C198.674 325.711 203.282 336.903 206.443 345.857H207.233C210.13 336.64 213.026 327.818 215.923 319.391C219.083 310.964 222.77 300.956 226.984 289.369C234.884 267.248 241.468 248.55 246.735 233.276C252.265 218.002 257.005 204.966 260.956 194.169C264.906 183.372 268.198 174.154 270.831 166.517C273.201 159.67 275.308 153.877 277.152 149.136C278.995 144.396 280.707 140.446 282.287 137.286C277.283 137.549 272.28 137.812 267.276 138.076C262.272 138.339 257.137 138.602 251.87 138.866V121.485H332.06V134.521C320.472 135.047 311.518 138.076 305.198 143.606C299.141 149.136 293.611 159.012 288.607 173.233C288.08 174.549 287.422 176.393 286.632 178.763C285.842 180.87 284.525 184.425 282.682 189.429C280.838 194.432 278.205 201.806 274.781 211.55C271.358 221.03 266.618 233.934 260.561 250.262C254.767 266.589 247.262 287.131 238.044 311.885C229.091 336.64 218.162 366.662 205.258 401.95H194.197Z" fill="#064061"/>
<defs>
<filter id="filter0_i" x="0" y="53" width="400" height="404" filterUnits="userSpaceOnUse" color-interpolation-filters="sRGB">
<feFlood flood-opacity="0" result="BackgroundImageFix"/>
<feBlend mode="normal" in="SourceGraphic" in2="BackgroundImageFix" result="shape"/>
<feColorMatrix in="SourceAlpha" type="matrix" values="0 0 0 0 0 0 0 0 0 0 0 0 0 0 0 0 0 0 127 0" result="hardAlpha"/>
<feOffset dy="4"/>
<feGaussianBlur stdDeviation="28.5"/>
<feComposite in2="hardAlpha" operator="arithmetic" k2="-1" k3="1"/>
<feColorMatrix type="matrix" values="0 0 0 0 0 0 0 0 0 0 0 0 0 0 0 0 0 0 0.25 0"/>
<feBlend mode="normal" in2="shape" result="effect1_innerShadow"/>
</filter>
</defs>
</svg>
